<svg width="22" height="22" viewBox="0 0 22 22" fill="none" xmlns="http://www.w3.org/2000/svg">
<path fill-rule="evenodd" clip-rule="evenodd" d="M0 11C0 4.92487 4.92487 0 11 0C17.0751 0 22 4.92487 22 11C22 17.0751 17.0751 22 11 22C4.92487 22 0 17.0751 0 11ZM8.06667 8.8C8.06667 7.17997 9.37996 5.86667 11 5.86667H11.88C13.419 5.86667 14.6667 7.1143 14.6667 8.65333V8.8C14.6667 10.42 13.3534 11.7333 11.7333 11.7333V13.2H10.2667V10.2667H11.7333C12.5434 10.2667 13.2 9.61002 13.2 8.8V8.65333C13.2 7.92432 12.609 7.33333 11.88 7.33333H11C10.19 7.33333 9.53333 7.98998 9.53333 8.8H8.06667ZM10.2667 16.1333V14.6667H11.7333V16.1333H10.2667Z" fill="#686868"/>
</svg>
